<svg width="1024" height="1024" viewBox="0 0 1024 1024" fill="none" xmlns="http://www.w3.org/2000/svg">
<path d="M108.24 645.309L483.728 848.383C498.572 856.412 516.676 856.48 531.584 848.563L914.255 645.309L997.379 686.592C1032.32 703.946 1033.01 751.778 998.591 770.064L531.584 1018.11C516.676 1026.03 498.572 1025.96 483.728 1017.93L25.0794 769.88C-8.90208 751.502 -8.20976 704.198 26.2961 686.748L108.24 645.309Z" fill="#FFD496"/>
<path d="M108.24 420.705L483.728 623.779C498.572 631.808 516.676 631.876 531.584 623.959L914.255 420.705L997.379 461.989C1032.32 479.342 1033.01 527.175 998.591 545.46L531.584 793.503C516.676 801.423 498.572 801.356 483.728 793.327L25.0794 545.276C-8.90208 526.899 -8.20976 479.594 26.2961 462.145L108.24 420.705Z" fill="#FFB54D"/>
<path d="M483.728 568.551L25.0794 320.5C-8.90208 302.122 -8.20976 254.82 26.2961 237.37L484.936 5.43185C499.14 -1.75298 516.1 -1.81342 530.36 5.26992L997.379 237.214C1032.32 254.566 1033.01 302.401 998.591 320.683L531.584 568.727C516.676 576.648 498.572 576.58 483.728 568.551Z" fill="#FF9500"/>
</svg>
