<svg width="1024" height="1024" viewBox="0 0 1024 1024" fill="none" xmlns="http://www.w3.org/2000/svg">
<path d="M0 510.049C0 485.994 19.5727 466.494 43.7168 466.494H277.156C301.301 466.494 320.874 485.994 320.874 510.049C320.874 534.103 301.301 553.603 277.156 553.603H43.7168C19.5727 553.603 0 534.103 0 510.049Z" fill="#FF9500"/>
<path d="M258.291 96.1254C258.291 120.178 277.789 139.677 301.842 139.677H421.691C445.744 139.677 465.243 120.178 465.243 96.1254C465.243 72.0727 445.744 52.5742 421.691 52.5742H301.842C277.789 52.5742 258.291 72.0727 258.291 96.1254Z" fill="#FF9500"/>
<path d="M81.395 235.56C81.395 259.613 99.8224 279.112 122.554 279.112H286.413C309.145 279.112 327.572 259.613 327.572 235.56C327.572 211.508 309.145 192.01 286.413 192.01H122.554C99.8224 192.01 81.395 211.508 81.395 235.56Z" fill="#FF9500"/>
<path d="M220.036 374.947C220.036 399 239.535 418.499 263.588 418.499H422.934C446.987 418.499 466.485 399 466.485 374.947C466.485 350.894 446.987 331.396 422.934 331.396H263.588C239.535 331.396 220.036 350.894 220.036 374.947Z" fill="#FF9500"/>
<path d="M379.379 235.528C379.379 259.581 398.884 279.079 422.932 279.079C446.98 279.079 466.485 259.581 466.485 235.528C466.485 211.475 446.98 191.977 422.932 191.977C398.884 191.977 379.379 211.475 379.379 235.528Z" fill="#FF9500"/>
<path d="M32.4639 374.947C32.4639 399 52.3849 418.499 76.9588 418.499H123.733C148.307 418.499 168.229 399 168.229 374.947C168.229 350.894 148.307 331.396 123.733 331.396H76.9588C52.3849 331.396 32.4639 350.894 32.4639 374.947Z" fill="#FF9500"/>
<path d="M279.093 927.872C279.093 903.817 296.632 884.316 318.267 884.316H426.071C447.706 884.316 465.245 903.817 465.245 927.872C465.245 951.926 447.706 971.427 426.071 971.427H318.267C296.632 971.427 279.093 951.926 279.093 927.872Z" fill="#FF9500"/>
<path d="M98.6855 788.421C98.6855 764.365 115.931 744.865 137.205 744.865H290.555C311.829 744.865 329.075 764.365 329.075 788.421C329.075 812.475 311.829 831.976 290.555 831.976H137.205C115.931 831.976 98.6855 812.475 98.6855 788.421Z" fill="#FF9500"/>
<path d="M169.391 649.032C169.391 624.977 189.192 605.477 213.617 605.477H422.259C446.684 605.477 466.484 624.977 466.484 649.032C466.484 673.088 446.684 692.587 422.259 692.587H213.617C189.192 692.587 169.391 673.088 169.391 649.032Z" fill="#FF9500"/>
<path d="M378.121 788.436C378.121 764.382 397.63 744.881 421.682 744.881C445.735 744.881 465.244 764.382 465.244 788.436C465.244 812.491 445.735 831.992 421.682 831.992C397.63 831.992 378.121 812.491 378.121 788.436Z" fill="#FF9500"/>
<path d="M30.5444 649.032C30.5444 624.977 49.4988 605.477 72.8803 605.477H75.3152C98.6966 605.477 117.651 624.977 117.651 649.032C117.651 673.088 98.6966 692.587 75.3152 692.587H72.8803C49.4988 692.587 30.5444 673.088 30.5444 649.032Z" fill="#FF9500"/>
<path d="M1024 510.049C1024 485.994 1004.43 466.494 980.283 466.494H746.844C722.699 466.494 703.127 485.994 703.127 510.049C703.127 534.103 722.699 553.603 746.844 553.603H980.283C1004.43 553.603 1024 534.103 1024 510.049Z" fill="#D441F9"/>
<path d="M765.709 96.1254C765.709 120.178 746.211 139.677 722.158 139.677H602.309C578.256 139.677 558.757 120.178 558.757 96.1254C558.757 72.0727 578.256 52.5742 602.309 52.5742H722.158C746.211 52.5742 765.709 72.0727 765.709 96.1254Z" fill="#D441F9"/>
<path d="M942.605 235.56C942.605 259.613 924.178 279.112 901.446 279.112H737.587C714.856 279.112 696.428 259.613 696.428 235.56C696.428 211.508 714.856 192.01 737.587 192.01H901.446C924.178 192.01 942.605 211.508 942.605 235.56Z" fill="#D441F9"/>
<path d="M803.964 374.947C803.964 399 784.465 418.499 760.412 418.499H601.066C577.013 418.499 557.515 399 557.515 374.947C557.515 350.894 577.013 331.396 601.066 331.396H760.412C784.465 331.396 803.964 350.894 803.964 374.947Z" fill="#D441F9"/>
<path d="M644.621 235.528C644.621 259.581 625.116 279.079 601.068 279.079C577.02 279.079 557.515 259.581 557.515 235.528C557.515 211.475 577.02 191.977 601.068 191.977C625.116 191.977 644.621 211.475 644.621 235.528Z" fill="#D441F9"/>
<path d="M991.536 374.947C991.536 399 971.615 418.499 947.041 418.499H900.267C875.693 418.499 855.771 399 855.771 374.947C855.771 350.894 875.693 331.396 900.267 331.396H947.041C971.615 331.396 991.536 350.894 991.536 374.947Z" fill="#D441F9"/>
<path d="M744.907 927.872C744.907 903.817 727.368 884.316 705.733 884.316H597.929C576.294 884.316 558.755 903.817 558.755 927.872C558.755 951.926 576.294 971.427 597.929 971.427H705.733C727.368 971.427 744.907 951.926 744.907 927.872Z" fill="#D441F9"/>
<path d="M925.314 788.421C925.314 764.365 908.069 744.865 886.795 744.865H733.445C712.171 744.865 694.925 764.365 694.925 788.421C694.925 812.475 712.171 831.976 733.445 831.976H886.795C908.069 831.976 925.314 812.475 925.314 788.421Z" fill="#D441F9"/>
<path d="M854.609 649.032C854.609 624.977 834.808 605.477 810.383 605.477H601.741C577.316 605.477 557.517 624.977 557.517 649.032C557.517 673.088 577.316 692.587 601.741 692.587H810.383C834.808 692.587 854.609 673.088 854.609 649.032Z" fill="#D441F9"/>
<path d="M645.879 788.436C645.879 764.382 626.371 744.881 602.318 744.881C578.265 744.881 558.756 764.382 558.756 788.436C558.756 812.491 578.265 831.992 602.318 831.992C626.371 831.992 645.879 812.491 645.879 788.436Z" fill="#D441F9"/>
<path d="M993.456 649.032C993.456 624.977 974.501 605.477 951.12 605.477H948.685C925.303 605.477 906.349 624.977 906.349 649.032C906.349 673.088 925.303 692.587 948.685 692.587H951.12C974.501 692.587 993.456 673.088 993.456 649.032Z" fill="#D441F9"/>
</svg>
